<svg xmlns="http://www.w3.org/2000/svg" width="130" height="130" style=""><rect id="backgroundrect" width="100%" height="100%" x="0" y="0" fill="none" stroke="none"/>
    
<g class="currentLayer" style=""><title>Layer 1</title><path d="M6.499000476837158,0 C2.9100004768371583,0 4.76837158203125e-7,2.906 4.76837158203125e-7,6.49 c0,2.867 1.862,5.299 4.445,6.158 C4.770000476837158,12.707 5.000000476837158,12.375 5.000000476837158,12.125 c0,-0.15400000000000003 0.003000000000000001,-0.3340000000000001 0,-0.8750000000000001 c-1.808,0.39200000000000007 -2.375,-0.8750000000000001 -2.375,-0.8750000000000001 c-0.29600000000000004,-0.7500000000000001 -0.6560000000000001,-0.9630000000000001 -0.6560000000000001,-0.9630000000000001 c-0.5900000000000001,-0.403 0.04400000000000001,-0.3940000000000001 0.04400000000000001,-0.3940000000000001 C2.6660004768371586,9.064 3.000000476837158,9.625 3.000000476837158,9.625 c0.5,0.8750000000000001 1.6300000000000001,0.791 2,0.6250000000000001 c0,-0.3970000000000001 0.04400000000000001,-0.6880000000000002 0.15400000000000003,-0.8730000000000001 C3.111000476837158,9.02 1.997000476837158,7.84 2.000000476837158,6.208 c0.0020000000000000005,-0.9640000000000001 0.3350000000000001,-1.715 0.8760000000000001,-2.269 C2.6390004768371584,3.641 2.4790004768371583,2.625 2.9610004768371585,2 c1.206,0 1.927,0.8730000000000001 1.927,0.8730000000000001 s0.5650000000000001,-0.24800000000000003 1.61,-0.24800000000000003 c1.045,0 1.608,0.234 1.608,0.234 S8.829000476837159,2 10.035000476837158,2 c0.48200000000000004,0.6250000000000001 0.32200000000000006,1.641 0.132,1.9180000000000001 C10.68400047683716,4.461 11.000000476837158,5.21 11.000000476837158,6.208 c0,1.6310000000000002 -1.11,2.81 -3.148,3.168 C7.9820004768371575,9.572 8.000000476837158,9.842 8.000000476837158,10.25 c0,0.8670000000000001 0,1.6620000000000001 0,1.875 c0,0.25 0.22800000000000004,0.5850000000000001 0.558,0.522 C11.139000476837158,11.787 13.000000476837158,9.356 13.000000476837158,6.49 C13.000000476837158,2.906 10.090000476837158,0 6.499000476837158,0 z" id="svg_1" class=""/></g></svg>